# xmcd CD database file
#
# Track frame offsets:
#	150
#	11932
#	27033
#	44799
#	73457
#	96102
#	120609
#	137857
#	165272
#	186676
#	202646
#	222161
#
# Disc length: 3357 seconds
#
# Revision: 2
# Processed by: cddbd v1.5.2PL0 Copyright (c) Steve Scherf et al.
# Submitted via: CDex 1.51
#
DISCID=b20d1b0c
DTITLE=Beaucoup Blue - Out Of The Woodwork
DYEAR=2003
DGENRE=Blues
TTITLE0=Come Back, Baby
TTITLE1=C. C. Rider
TTITLE2=Mean Old World
TTITLE3=Corrina, Corrina
TTITLE4=Sea Of Love
TTITLE5=Crying Won't Help You
TTITLE6=Bright Lights, Big City
TTITLE7=Walkin' Blues
TTITLE8=Mystery Train
TTITLE9=Shiver To The Bone
TTITLE10=It Takes A Lot To Laugh, It Takes A Train To Cry
TTITLE11=Out Of The Woodwork
EXTD=YEAR: 2003
EXTT0=
EXTT1=
EXTT2=
EXTT3=
EXTT4=
EXTT5=
EXTT6=
EXTT7=
EXTT8=
EXTT9=
EXTT10=
EXTT11=
PLAYORDER=
